<?xml version="1.0" ?><svg id="Layer_1" style="enable-background:new 0 0 512 512;" version="1.1" viewBox="0 0 512 512" xml:space="preserve" xmlns="http://www.w3.org/2000/svg" xmlns:xlink="http://www.w3.org/1999/xlink"><style type="text/css">
	.st0{fill:#FFCE0E;}
	.st1{fill:#231F20;}
	.st2{fill:#F5F6F6;}
	.st3{fill:#FFFFFF;}
</style><circle class="st0" cx="256" cy="256" r="256"/><path class="st1" d="M256,375.5c-44.9,0-84.7,13-109.8,33c10.6-41.3,55.7-72.3,109.8-72.3s99.2,31,109.8,72.3  C340.7,388.5,300.9,375.5,256,375.5z"/><g><g><ellipse class="st2" cx="172.5" cy="184.4" rx="66.3" ry="83.1"/><ellipse class="st1" cx="172.5" cy="210" rx="42.8" ry="56"/><ellipse class="st3" cx="156.9" cy="198.3" rx="11.2" ry="12.9"/><ellipse class="st3" cx="174.1" cy="222.9" rx="6" ry="7.5"/><ellipse class="st2" cx="339.4" cy="184.4" rx="66.3" ry="83.1"/><ellipse class="st1" cx="339.4" cy="210" rx="42.8" ry="56"/><ellipse class="st3" cx="323.8" cy="198.3" rx="11.2" ry="12.9"/><ellipse class="st3" cx="341.1" cy="222.9" rx="6" ry="7.5"/></g><g><path class="st1" d="M422.4,141.9c-1.3,0-2.6-0.9-2.9-2.3c-8.1-32.8-25.7-55.1-52.3-66.4c-20-8.5-37.8-7.2-38-7.2    c-1.7,0.1-3.1-1.1-3.2-2.8c-0.1-1.7,1.1-3.1,2.8-3.2c0.8-0.1,19.3-1.4,40.6,7.6c19.6,8.3,45.3,27.2,56,70.6    c0.4,1.6-0.6,3.2-2.2,3.6C422.9,141.9,422.7,141.9,422.4,141.9z"/></g><g><path class="st1" d="M89.6,141.9c-0.2,0-0.5,0-0.7-0.1c-1.6-0.4-2.6-2-2.2-3.6c10.7-43.3,36.3-62.3,56-70.6    c21.3-8.9,39.8-7.6,40.6-7.6c1.7,0.1,2.9,1.6,2.8,3.2c-0.1,1.7-1.6,2.9-3.2,2.8c-0.3,0-18.1-1.2-38,7.2    c-26.6,11.3-44.2,33.6-52.3,66.4C92.1,141,90.9,141.9,89.6,141.9z"/></g></g></svg>